<?xml version="1.0" standalone="no"?>
<!DOCTYPE svg PUBLIC "-//W3C//DTD SVG 20010904//EN"
 "http://www.w3.org/TR/2001/REC-SVG-20010904/DTD/svg10.dtd">
<svg version="1.0" xmlns="http://www.w3.org/2000/svg"
 width="1280.000000pt" height="425.000000pt" viewBox="0 0 1280.000000 425.000000"
 preserveAspectRatio="xMidYMid meet">
<metadata>
Created by potrace 1.15, written by Peter Selinger 2001-2017
</metadata>
<g transform="translate(0.000000,425.000000) scale(0.100000,-0.100000)"
fill="#000000" stroke="none">
<path d="M9613 4230 c-153 -54 -398 -220 -469 -317 -15 -21 -42 -57 -60 -81
-39 -52 -137 -293 -169 -417 -13 -49 -33 -116 -44 -147 -19 -52 -20 -62 -8
-120 31 -145 128 -245 307 -317 192 -76 373 -64 457 32 37 42 48 84 48 180 0
65 -2 70 -33 98 -22 20 -43 29 -67 29 -46 0 -129 -17 -190 -40 -151 -56 -240
-62 -294 -23 -15 12 -33 41 -44 74 -17 49 -17 64 -6 159 39 349 245 630 549
750 217 86 544 46 810 -97 112 -60 148 -86 255 -180 196 -174 314 -359 403
-633 70 -219 88 -422 57 -650 -36 -266 -102 -388 -445 -830 -318 -409 -483
-591 -700 -772 -311 -258 -585 -435 -733 -473 -82 -22 -195 -16 -307 15 -192
54 -1028 334 -1310 440 -653 246 -935 370 -1730 765 -500 249 -945 452 -1125
515 -681 239 -1280 316 -2045 265 -273 -18 -392 -35 -610 -85 -222 -51 -347
-70 -459 -70 -101 0 -144 13 -139 43 2 14 26 28 93 52 50 18 126 49 170 68
271 118 395 159 645 217 639 149 1163 203 1750 181 763 -28 1453 -156 2252
-417 187 -60 433 -164 852 -358 114 -53 319 -141 455 -195 135 -55 282 -116
326 -136 95 -43 396 -150 547 -194 276 -81 517 -107 724 -81 55 7 142 14 195
15 161 5 276 37 410 116 133 77 259 228 259 310 0 54 -19 72 -73 72 -75 -2
-176 -56 -327 -178 -153 -124 -312 -185 -565 -219 -96 -13 -295 14 -512 70
-264 67 -520 163 -1043 389 -85 37 -227 96 -315 132 -88 36 -252 107 -365 158
-313 142 -411 182 -585 241 -499 170 -1126 301 -1765 370 -211 23 -1062 27
-1255 6 -66 -7 -181 -20 -255 -28 -74 -8 -180 -23 -235 -34 -55 -10 -122 -22
-150 -26 -89 -12 -686 -162 -827 -208 -76 -25 -226 -87 -340 -141 -296 -141
-368 -164 -550 -174 -137 -7 -152 -10 -212 -40 -94 -46 -157 -119 -224 -261
-72 -152 -106 -193 -196 -235 -69 -31 -173 -114 -319 -252 -76 -72 -82 -85
-61 -125 9 -18 22 -36 28 -40 25 -17 74 -7 117 24 79 57 320 197 377 218 46
17 60 19 83 9 16 -6 31 -20 35 -31 12 -38 68 -90 134 -123 134 -68 475 -88
584 -35 59 28 76 54 83 123 5 51 4 56 -21 72 -26 17 -29 17 -109 -10 -45 -16
-102 -37 -127 -48 -79 -34 -133 -47 -196 -47 -49 0 -69 5 -99 26 -20 14 -57
34 -81 46 -45 21 -94 69 -94 93 0 34 98 92 200 119 36 10 115 41 175 71 199
97 354 165 448 196 136 45 179 40 338 -38 68 -34 176 -98 239 -144 205 -147
331 -225 556 -342 527 -276 781 -397 1844 -880 281 -127 1258 -442 1605 -516
55 -12 136 -31 180 -42 124 -32 523 -98 695 -115 85 -8 288 -17 450 -21 598
-11 1045 48 1372 182 62 26 163 62 223 82 l110 34 118 -11 c65 -6 171 -24 236
-41 216 -53 673 -80 1031 -60 592 33 1079 169 1492 417 143 86 270 185 428
336 69 65 147 140 173 165 56 53 78 92 117 213 53 163 49 337 -11 421 -30 43
-102 72 -160 67 -64 -7 -96 -29 -111 -79 -10 -37 -8 -60 20 -203 51 -256 45
-291 -63 -426 -122 -150 -354 -319 -670 -488 -442 -235 -870 -319 -1505 -293
-223 9 -857 64 -868 76 -2 2 15 14 39 26 132 67 561 351 700 463 111 89 392
370 496 496 34 41 91 111 128 155 133 162 301 435 384 626 82 189 115 353 114
564 -1 171 -14 266 -55 409 -71 252 -188 471 -344 651 -259 296 -514 426 -889
454 -200 15 -290 13 -352 -9z m-6163 -1891 c71 -2 287 -21 350 -30 90 -13 471
-104 610 -146 380 -114 741 -251 960 -366 74 -38 252 -133 395 -210 143 -77
337 -176 430 -220 361 -168 830 -379 972 -436 81 -33 214 -87 296 -120 81 -33
193 -72 250 -87 56 -14 289 -86 517 -159 228 -74 481 -151 563 -171 81 -20
147 -40 147 -45 0 -4 -25 -13 -56 -19 -30 -6 -110 -29 -177 -51 -220 -71 -460
-110 -827 -135 -212 -15 -277 -15 -485 -5 -659 34 -904 67 -1320 182 -751 208
-1033 298 -1200 382 -39 19 -113 48 -165 65 -212 66 -459 178 -1165 527 -715
353 -1060 537 -1138 604 -36 31 -83 62 -106 68 -36 11 -363 192 -385 213 -4 4
18 14 50 20 33 7 125 30 207 51 327 86 458 99 927 93 173 -2 331 -4 350 -5z
m-2007 -120 c23 -7 45 -15 50 -19 4 -4 -36 -19 -90 -35 -54 -15 -150 -52 -213
-81 -63 -28 -155 -69 -205 -89 -49 -21 -128 -57 -175 -80 -98 -49 -136 -63
-126 -46 13 21 170 124 311 204 33 19 110 64 170 101 l110 67 63 -5 c34 -3 81
-11 105 -17z m-538 -39 c-33 -22 -75 -51 -94 -65 -47 -34 -62 -31 -26 4 36 36
143 101 164 101 9 0 -11 -18 -44 -40z"/>
</g>
</svg>
