<?xml version="1.0" standalone="no"?>
<!DOCTYPE svg PUBLIC "-//W3C//DTD SVG 20010904//EN"
 "http://www.w3.org/TR/2001/REC-SVG-20010904/DTD/svg10.dtd">
<svg version="1.0" xmlns="http://www.w3.org/2000/svg"
 width="1280.000000pt" height="640.000000pt" viewBox="0 0 1280.000000 640.000000"
 preserveAspectRatio="xMidYMid meet">
<metadata>
Created by potrace 1.15, written by Peter Selinger 2001-2017
</metadata>
<g transform="translate(0.000000,640.000000) scale(0.100000,-0.100000)"
fill="#000000" stroke="none">
<path d="M1675 6205 c-205 -33 -298 -58 -431 -115 -276 -118 -401 -206 -619
-431 -127 -132 -171 -187 -285 -359 -142 -216 -193 -335 -229 -535 -11 -60
-31 -158 -45 -216 -44 -188 -59 -326 -60 -564 -1 -160 4 -250 16 -330 9 -60
21 -151 26 -200 12 -107 80 -319 151 -470 93 -195 326 -571 425 -682 23 -26
64 -79 91 -117 132 -188 490 -510 766 -689 64 -41 162 -109 218 -151 138 -103
570 -319 761 -381 30 -10 85 -33 122 -51 37 -19 100 -47 140 -63 40 -16 125
-53 188 -82 63 -29 180 -76 260 -105 80 -28 170 -61 200 -72 113 -41 412 -123
628 -171 122 -28 258 -61 300 -75 133 -42 218 -54 517 -76 504 -36 600 -39
695 -22 l86 15 54 -29 c52 -27 62 -29 180 -29 69 0 217 -8 330 -18 165 -15
252 -17 450 -12 135 4 277 11 315 16 39 5 169 14 290 18 121 5 265 14 320 20
55 6 224 15 375 21 151 5 293 14 315 19 22 6 103 17 180 26 222 26 435 71 885
190 159 42 894 293 1009 345 107 47 258 111 526 223 140 58 263 116 367 174
46 25 145 79 222 120 130 70 355 205 491 296 33 22 139 117 235 212 96 94 195
186 220 202 54 37 107 92 186 193 32 41 97 114 145 163 48 48 92 101 99 117
17 40 5 77 -30 95 -60 31 -96 16 -208 -86 -42 -39 -120 -101 -172 -137 -52
-36 -117 -85 -145 -108 -132 -110 -583 -366 -731 -414 -67 -22 -298 -111 -499
-191 -55 -23 -122 -54 -150 -71 -42 -26 -65 -32 -142 -39 -51 -4 -100 -12
-110 -17 -10 -6 -74 -22 -143 -37 -69 -15 -170 -44 -225 -65 -122 -46 -275
-89 -459 -130 -77 -17 -186 -46 -243 -65 -57 -19 -116 -35 -131 -35 -15 0 -65
-16 -112 -36 -126 -53 -199 -67 -281 -54 -37 5 -110 10 -161 10 -92 0 -131 -7
-408 -69 -74 -17 -228 -46 -341 -65 -258 -44 -305 -61 -379 -136 -84 -85 -107
-87 -176 -10 -22 24 -50 42 -77 49 -27 8 -253 17 -637 26 -327 8 -647 18 -710
24 -63 6 -182 13 -265 16 -203 9 -423 31 -542 55 -54 12 -167 32 -252 46 -193
31 -358 66 -492 103 -57 16 -159 43 -227 61 -68 17 -201 56 -295 86 -95 30
-235 73 -312 94 -77 22 -192 60 -255 84 -63 24 -191 65 -285 90 -127 35 -201
62 -290 106 -132 64 -270 118 -391 151 -99 27 -427 194 -498 253 -28 23 -123
97 -211 164 -220 166 -338 271 -562 500 -138 141 -220 234 -287 327 -105 146
-131 193 -174 316 -17 48 -62 163 -101 256 -39 94 -82 213 -95 264 -14 52 -30
108 -37 124 -9 20 -14 109 -17 272 -4 277 2 327 69 528 43 128 90 230 193 418
115 210 261 363 441 463 196 109 310 144 472 144 241 0 417 -52 578 -173 130
-97 265 -300 301 -453 26 -112 16 -283 -25 -404 -70 -208 -156 -318 -303 -389
-106 -51 -199 -73 -313 -73 -110 -1 -198 16 -245 47 -53 34 -100 127 -100 199
0 97 67 200 130 198 45 -1 68 -10 151 -58 42 -24 86 -44 98 -44 56 0 144 83
196 186 28 56 30 66 30 179 0 110 -2 125 -28 179 -53 115 -163 229 -272 284
-97 49 -361 55 -452 11 -67 -33 -202 -171 -253 -259 -53 -91 -97 -224 -116
-345 -25 -166 9 -339 102 -514 59 -112 106 -173 173 -230 155 -128 502 -242
696 -227 226 16 310 37 515 128 127 56 140 64 218 141 46 45 113 119 149 164
75 97 178 261 194 312 6 20 24 72 41 116 36 96 51 228 38 330 -8 57 -25 99
-91 230 -174 342 -226 413 -408 557 -114 91 -175 121 -337 168 -288 82 -453
95 -699 55z m1255 -965 c16 -29 28 -226 19 -301 -4 -37 -17 -93 -29 -125 -34
-98 -144 -243 -167 -221 -3 3 7 20 21 38 30 35 63 97 97 180 20 48 23 77 26
252 3 108 9 197 14 197 4 0 13 -9 19 -20z m-2365 -2197 c33 -69 -16 -54 -52
17 -12 23 -20 47 -17 52 9 13 50 -28 69 -69z m185 -290 c128 -171 506 -551
639 -643 52 -36 128 -92 170 -126 94 -75 182 -134 246 -167 112 -57 215 -111
297 -158 100 -58 319 -158 398 -184 30 -9 93 -36 140 -60 47 -23 137 -63 201
-88 64 -25 140 -58 170 -73 30 -15 101 -44 159 -65 58 -21 141 -51 185 -68 44
-17 143 -50 220 -75 77 -24 163 -53 192 -65 69 -27 387 -114 533 -145 319 -69
731 -129 1125 -166 446 -41 1970 -53 2115 -17 36 9 170 24 300 32 288 19 527
41 640 60 47 8 139 17 205 21 137 7 298 35 361 63 24 11 69 22 101 26 l58 6
-23 -20 c-31 -27 -59 -34 -287 -77 -104 -19 -222 -44 -260 -54 -39 -11 -132
-27 -209 -35 -76 -8 -157 -20 -180 -25 -23 -5 -94 -14 -157 -20 -63 -6 -150
-19 -194 -30 -189 -45 -284 -54 -895 -79 -746 -31 -902 -35 -1023 -23 -67 7
-188 12 -269 12 -80 0 -204 7 -275 15 -70 8 -204 19 -298 25 -196 13 -304 29
-500 75 -77 18 -162 36 -190 40 -103 14 -486 117 -605 163 -36 14 -101 35
-145 47 -44 13 -120 41 -170 63 -49 22 -176 69 -282 106 -106 36 -252 92 -325
125 -73 32 -144 62 -158 66 -94 28 -427 176 -495 220 -44 28 -130 73 -191 99
-147 63 -242 117 -394 226 -69 50 -165 114 -214 142 -114 68 -240 173 -430
362 -163 161 -201 212 -303 406 -101 192 -95 213 17 63z"/>
</g>
</svg>
