<?xml version="1.0" standalone="no"?>
<!DOCTYPE svg PUBLIC "-//W3C//DTD SVG 20010904//EN"
 "http://www.w3.org/TR/2001/REC-SVG-20010904/DTD/svg10.dtd">
<svg version="1.0" xmlns="http://www.w3.org/2000/svg"
 width="1280.000000pt" height="1136.000000pt" viewBox="0 0 1280.000000 1136.000000"
 preserveAspectRatio="xMidYMid meet">
<metadata>
Created by potrace 1.15, written by Peter Selinger 2001-2017
</metadata>
<g transform="translate(0.000000,1136.000000) scale(0.100000,-0.100000)"
fill="#000000" stroke="none">
<path d="M11350 11350 c0 -6 62 -10 165 -10 103 0 165 4 165 10 0 6 -62 10
-165 10 -103 0 -165 -4 -165 -10z"/>
<path d="M4943 11335 c-13 -36 3 -123 31 -160 42 -55 68 -63 105 -34 16 13 30
33 30 44 1 28 -53 119 -85 144 -31 25 -72 28 -81 6z"/>
<path d="M4356 11101 c5 -5 77 -30 159 -55 208 -64 318 -107 477 -188 249
-125 431 -260 625 -462 187 -195 310 -374 434 -631 155 -323 236 -608 270
-941 17 -176 6 -636 -20 -824 -80 -578 -249 -1036 -561 -1515 -132 -204 -159
-256 -99 -199 121 116 385 604 518 959 143 381 241 891 241 1255 -1 645 -152
1155 -489 1645 -132 191 -327 401 -486 521 -301 228 -576 358 -875 414 -36 7
-69 17 -74 21 -13 12 -133 12 -120 0z"/>
<path d="M5401 11091 c-9 -6 -13 -31 -14 -82 0 -87 20 -135 59 -145 34 -9 78
24 82 61 5 38 -23 108 -58 145 -29 31 -45 36 -69 21z"/>
<path d="M7420 11074 c0 -9 16 -78 35 -153 64 -245 145 -367 325 -490 50 -34
88 -66 85 -71 -6 -10 -61 6 -168 49 -174 70 -294 145 -392 246 -67 68 -78 86
-159 255 -14 29 -49 34 -54 7 -5 -27 122 -219 189 -286 105 -106 249 -188 464
-266 55 -20 109 -44 120 -55 50 -47 250 -116 418 -146 203 -35 330 -133 387
-299 11 -32 20 -82 20 -111 0 -53 19 -89 44 -81 38 12 6 122 -120 418 -13 32
-29 100 -37 162 -15 115 -29 147 -80 177 -43 27 -73 25 -101 -5 l-24 -25 14
66 c16 76 11 107 -21 128 -12 8 -25 29 -29 46 -6 35 -65 100 -89 100 -9 0 -39
20 -68 45 -29 25 -67 48 -85 51 -18 3 -57 21 -86 40 -46 30 -95 43 -109 29 -6
-5 56 -424 69 -475 17 -64 33 -95 65 -127 17 -18 26 -33 21 -33 -5 0 -30 21
-54 46 -25 25 -72 58 -105 73 -33 16 -88 49 -122 75 -172 130 -263 292 -296
526 -12 85 -15 95 -35 98 -15 2 -22 -2 -22 -14z m629 -361 c39 -48 39 -61 0
-58 -37 3 -49 18 -49 63 0 42 12 41 49 -5z m126 -75 c15 -18 34 -33 43 -33 19
0 56 -49 49 -66 -3 -9 -9 -3 -16 15 -9 23 -16 27 -35 22 -20 -5 -29 0 -47 25
-18 26 -27 30 -50 25 -24 -4 -29 -2 -29 13 0 41 51 40 85 -1z m135 -192 c-1
-31 -1 -31 -15 9 -18 50 -18 50 0 35 8 -7 15 -27 15 -44z m-160 12 c33 -55 21
-128 -20 -128 -28 0 -60 56 -60 106 0 47 5 54 37 54 16 0 30 -11 43 -32z m334
-104 c24 -9 67 -104 47 -104 -4 0 -11 15 -16 32 -7 23 -22 40 -50 55 -31 18
-35 23 -18 23 12 0 29 -3 37 -6z m-230 -83 c-6 -7 -57 33 -62 49 -3 7 11 0 31
-16 20 -15 34 -30 31 -33z m227 -27 c9 -24 -4 -50 -20 -40 -15 10 -14 69 1 64
6 -2 14 -13 19 -24z"/>
<path d="M8104 10395 c-11 -44 37 -78 51 -35 8 24 -11 60 -30 60 -8 0 -17 -11
-21 -25z"/>
<path d="M3535 10974 c-11 -1 -67 -8 -125 -14 -279 -32 -541 -114 -807 -255
-145 -77 -220 -130 -447 -314 -219 -178 -266 -220 -266 -236 0 -6 -30 -41 -67
-77 l-68 -67 -1 53 c0 85 -57 146 -135 146 -60 0 -190 -72 -272 -151 -43 -41
-83 -71 -102 -75 -64 -13 -127 -70 -170 -153 -27 -54 -17 -139 23 -196 28 -40
32 -54 32 -109 0 -86 24 -204 51 -258 29 -54 35 -32 14 48 -9 32 -19 99 -22
148 l-6 90 27 -21 c33 -27 73 -39 149 -48 32 -4 60 -12 63 -19 3 -7 -18 -74
-46 -149 -27 -75 -50 -143 -50 -150 0 -7 -6 -22 -14 -32 -13 -19 -16 -18 -55
25 -60 65 -109 170 -127 270 -26 155 -96 357 -140 410 -14 16 -49 89 -78 162
-66 165 -95 224 -159 316 -65 95 -142 165 -264 240 -103 64 -129 73 -139 47
-9 -23 12 -41 69 -60 159 -51 317 -216 424 -441 40 -84 93 -225 93 -246 0 -23
-23 -1 -71 70 -130 190 -243 263 -512 332 -141 36 -157 37 -157 11 0 -27 9
-31 88 -36 150 -10 331 -83 434 -175 66 -59 161 -180 183 -235 10 -21 42 -68
72 -102 31 -35 50 -63 44 -63 -6 0 -11 4 -11 10 0 18 -75 59 -140 76 -71 18
-460 73 -472 67 -19 -10 -6 -71 21 -109 16 -21 34 -57 40 -80 6 -23 29 -61 50
-85 21 -25 46 -61 54 -80 17 -41 61 -76 106 -85 17 -4 33 -14 36 -25 10 -32
44 -35 165 -15 19 4 28 3 20 0 -43 -18 -51 -68 -21 -118 31 -49 69 -65 178
-76 70 -6 120 -18 172 -39 81 -33 90 -39 74 -49 -6 -4 -11 -18 -11 -32 1 -20
-29 -223 -48 -326 -2 -13 -14 -24 -29 -28 -32 -8 -32 -30 0 -44 23 -11 25 -16
25 -84 0 -268 75 -678 139 -766 l19 -26 -91 -59 c-105 -68 -217 -176 -271
-260 -21 -32 -36 -60 -34 -63 2 -2 21 18 41 44 87 112 201 217 309 286 l58 36
20 -20 20 -20 -43 -26 c-248 -156 -390 -411 -374 -673 5 -99 29 -168 81 -241
39 -54 41 -60 25 -60 -24 0 -153 -94 -235 -172 -100 -94 -145 -128 -168 -128
-17 0 -19 4 -20 65 -1 39 -2 40 -37 43 -103 9 -103 -162 -2 -236 l28 -20 -2
-199 -2 -198 23 120 c13 66 34 149 46 185 71 206 207 367 387 457 71 35 72 35
115 20 44 -14 45 -14 87 14 41 28 45 29 170 29 102 0 143 -4 197 -21 189 -57
372 -209 501 -417 89 -143 118 -266 117 -502 -1 -231 -23 -343 -111 -563 -30
-77 -52 -141 -50 -144 11 -10 67 80 93 150 15 40 40 102 55 138 61 148 72 222
73 484 1 225 0 245 -22 315 -95 302 -356 562 -637 635 -86 22 -221 36 -282 28
-45 -5 -53 -3 -53 10 0 9 -14 32 -31 52 -36 40 -84 48 -112 17 -22 -24 -21
-34 4 -50 34 -22 21 -53 -30 -70 -40 -13 -45 -13 -69 5 -41 30 -82 115 -97
197 -34 201 40 413 200 569 78 76 203 160 224 151 9 -4 40 -9 68 -12 69 -6
149 32 218 104 55 56 69 62 226 94 218 44 387 63 704 80 110 6 207 13 215 15
8 2 -95 1 -230 -1 -270 -6 -583 -33 -730 -64 -52 -11 -97 -20 -100 -20 -3 0
-5 39 -6 88 0 69 -5 96 -22 128 -29 57 -73 91 -127 100 -89 13 -119 -13 -104
-90 23 -118 -2 -176 -77 -176 -175 0 -289 356 -244 765 10 95 40 275 45 275 2
0 30 -37 61 -82 105 -148 297 -332 450 -430 136 -87 362 -174 574 -221 194
-43 368 -64 738 -88 100 -7 182 -14 182 -16 0 -3 -9 -18 -21 -34 -11 -16 -33
-57 -49 -93 l-29 -64 -118 -38 c-73 -24 -189 -75 -303 -133 -355 -182 -361
-184 -414 -189 -42 -3 -54 0 -70 17 -23 25 -15 55 13 46 30 -9 33 10 6 35 -21
20 -28 22 -50 12 -27 -13 -40 -49 -31 -87 15 -58 135 -73 239 -31 31 13 57 21
57 17 0 -17 -146 -174 -173 -185 -18 -8 -44 -19 -59 -25 -35 -13 -36 -29 -3
-41 14 -5 25 -16 25 -23 0 -29 -45 -81 -77 -89 -37 -10 -45 -37 -13 -45 15 -4
19 -11 14 -27 -3 -11 -8 -29 -11 -39 -2 -10 -22 -29 -44 -43 -44 -28 -47 -36
-19 -55 31 -21 18 -72 -21 -86 -35 -14 -37 -26 -5 -41 21 -10 24 -15 17 -40
-5 -15 -16 -42 -25 -60 -19 -37 -21 -66 -3 -80 28 -24 41 4 47 102 5 97 10
111 45 118 22 5 22 7 3 56 -16 40 -3 66 36 70 28 4 33 20 15 54 -15 29 16 112
40 105 47 -13 46 -15 43 45 -4 53 -1 61 39 119 57 85 186 217 277 286 103 78
239 146 381 193 67 22 124 40 126 40 3 0 5 -23 5 -50 0 -30 8 -68 21 -95 l21
-45 -36 -41 c-34 -41 -63 -127 -52 -160 2 -8 7 -26 10 -41 5 -21 12 -28 30
-28 34 0 69 32 115 104 l40 64 49 -25 50 -24 -20 -41 c-46 -94 -59 -244 -33
-356 35 -148 120 -244 290 -330 33 -16 71 -39 85 -50 l25 -20 -27 -11 c-36
-14 -41 -25 -20 -51 14 -18 25 -21 45 -16 32 8 67 43 67 68 0 24 32 42 115 67
179 52 301 201 255 311 -27 66 -133 56 -167 -15 -18 -38 -13 -58 20 -79 13 -9
20 -6 32 12 29 40 75 22 75 -30 0 -38 -58 -101 -123 -133 -214 -104 -497 -12
-601 195 -64 129 -69 268 -14 411 l22 56 65 7 c82 7 159 44 205 98 34 39 66
112 66 149 0 23 8 28 93 50 l72 18 -60 -5 c-33 -3 -67 -7 -76 -10 -12 -3 -19
6 -27 35 l-10 40 52 9 51 10 -62 1 c-35 0 -63 5 -63 11 0 13 -79 58 -109 62
-22 3 -26 -3 -37 -46 -7 -27 -16 -52 -21 -56 -4 -5 -37 -20 -72 -34 -51 -20
-67 -23 -85 -15 -31 17 -66 51 -66 65 0 11 58 27 178 50 18 4 35 10 37 15 5 8
-23 5 -124 -12 -30 -5 -67 -9 -83 -9 -25 0 -28 4 -28 31 0 16 5 51 12 76 l11
46 106 -7 c433 -27 721 -105 926 -251 76 -54 189 -171 244 -253 40 -60 42 -65
39 -130 l-3 -67 -44 65 c-57 83 -142 168 -215 215 -67 42 -97 42 -42 -1 152
-116 197 -163 260 -269 46 -76 48 -105 5 -105 -24 0 -30 -4 -27 -17 2 -10 14
-20 27 -21 21 -3 23 -7 17 -40 -4 -21 -9 -53 -12 -72 -2 -19 -16 -77 -30 -129
-101 -372 -280 -648 -666 -1026 -308 -302 -671 -588 -1353 -1065 -359 -251
-480 -341 -665 -494 -387 -322 -695 -715 -878 -1121 -241 -536 -317 -991 -253
-1520 40 -328 67 -485 118 -663 12 -45 18 -52 34 -47 28 9 43 -6 122 -125 102
-155 205 -279 355 -428 150 -149 236 -219 397 -322 110 -71 338 -192 385 -204
25 -7 25 -7 -4 17 -16 14 -90 60 -165 103 -271 155 -438 281 -616 465 -110
114 -238 287 -276 375 -28 62 -38 151 -48 424 -14 367 12 595 96 845 49 146
176 397 260 515 97 134 272 306 438 429 198 147 222 171 170 171 -35 0 -104
-37 -202 -106 -101 -74 -303 -244 -303 -257 0 -5 -34 -51 -74 -102 -231 -287
-355 -549 -423 -892 -26 -131 -27 -151 -26 -423 0 -164 5 -316 12 -359 6 -40
10 -76 7 -78 -3 -3 -20 26 -39 63 -89 177 -114 311 -102 554 33 729 363 1401
915 1862 350 292 838 508 1410 622 420 84 774 120 2060 206 935 63 1409 125
1915 251 475 118 863 262 1190 441 476 262 946 681 1297 1159 l56 76 158 -28
c173 -31 447 -49 478 -32 13 7 -21 12 -121 16 -76 4 -174 14 -218 21 -104 19
-266 54 -271 58 -1 2 8 18 22 35 l24 32 72 -25 c100 -34 104 -30 21 17 l-72
40 27 39 27 38 60 -33 c84 -46 241 -103 333 -120 176 -34 574 4 603 57 5 9 37
36 72 59 120 81 255 237 326 377 41 81 13 54 -43 -41 -62 -106 -188 -247 -264
-295 -81 -52 -234 -66 -417 -38 -204 30 -350 121 -503 310 -59 74 -81 76 -36
5 63 -100 195 -216 313 -275 117 -58 212 -76 384 -72 l149 3 -54 -25 c-48 -23
-65 -25 -178 -24 -133 1 -215 17 -350 70 -80 32 -200 103 -259 153 l-45 38 17
44 c18 47 22 81 10 92 -7 8 -72 -29 -89 -50 -10 -12 -16 -9 -34 17 -12 17 -21
32 -19 33 6 4 76 36 135 63 47 20 51 21 47 5 -2 -9 3 -23 11 -30 24 -20 49 4
41 40 -6 25 -2 29 42 49 90 40 220 80 316 96 95 16 96 16 123 -5 36 -28 89
-27 149 4 27 13 79 33 115 44 84 26 151 77 200 153 86 132 70 279 -32 310
l-43 13 42 3 c24 2 79 -7 125 -20 169 -47 309 -26 334 50 13 42 40 60 105 72
121 23 269 157 269 244 0 30 61 122 106 159 74 61 154 199 154 266 1 39 32
100 80 156 59 68 81 123 87 216 5 65 3 80 -10 85 -9 3 -73 -4 -144 -15 -70
-11 -272 -39 -448 -61 -627 -80 -809 -134 -959 -284 -71 -70 -97 -76 -53 -11
13 20 70 84 127 142 99 104 111 122 163 250 76 189 378 548 601 715 256 191
661 330 1014 347 132 7 156 10 172 27 17 16 18 27 12 64 l-8 45 -49 -1 c-28 0
-102 -14 -165 -31 -63 -18 -195 -52 -294 -78 -220 -56 -333 -97 -501 -181
-278 -137 -468 -317 -695 -659 -135 -204 -178 -242 -167 -147 3 26 14 71 24
101 17 52 19 54 56 56 44 2 62 16 53 40 -5 13 -15 16 -41 13 -19 -2 -35 -3
-35 -2 0 1 27 71 61 156 81 206 242 529 327 658 251 383 604 668 941 760 24 6
56 24 71 38 22 22 26 34 22 65 -3 29 -10 41 -29 48 -42 16 -99 -6 -226 -89
-67 -44 -160 -103 -207 -132 -122 -76 -192 -131 -303 -239 -278 -270 -476
-609 -672 -1151 -52 -143 -75 -177 -90 -131 -9 30 -32 26 -40 -8 -5 -23 -13
-30 -38 -34 -39 -5 -57 1 -57 19 0 27 -30 13 -44 -20 -15 -36 -32 -49 -79 -60
-24 -6 -30 -3 -34 14 -8 30 -37 21 -41 -13 -2 -16 -16 -37 -36 -52 -43 -33
-72 -33 -80 1 -10 37 -29 25 -46 -29 -10 -31 -33 -65 -70 -102 -30 -30 -57
-55 -61 -55 -15 0 -29 57 -29 119 0 78 -20 115 -69 126 -21 4 -39 24 -74 78
-25 40 -73 106 -106 147 -33 41 -61 82 -61 91 0 8 9 50 21 94 125 478 370 755
702 794 167 20 334 -37 382 -129 19 -37 19 -55 -1 -74 -23 -24 -60 -19 -87 10
l-25 26 -21 -21 c-51 -51 -3 -139 80 -148 59 -7 106 15 137 62 l22 35 -25 54
c-40 85 -96 141 -183 184 l-77 37 -130 0 c-115 -1 -139 -4 -210 -28 -160 -56
-309 -170 -400 -308 -84 -126 -175 -345 -207 -501 -7 -32 -15 -58 -18 -58 -3
0 -24 19 -45 41 -82 85 -357 279 -395 279 -6 0 -10 10 -10 23 0 23 -17 47 -32
47 -4 0 -8 -9 -8 -21 0 -16 -4 -19 -17 -14 -10 4 -31 12 -48 18 -16 6 -69 47
-116 91 -48 45 -106 92 -130 105 -50 27 -50 27 48 -58 40 -35 79 -73 87 -86
l15 -22 -47 9 c-26 5 -72 7 -102 4 l-55 -6 -97 72 c-94 71 -185 130 -220 144
-13 4 -18 1 -18 -10 0 -9 26 -35 59 -59 32 -23 95 -69 140 -101 45 -33 80 -63
79 -67 -2 -4 -25 -25 -53 -46 -57 -45 -97 -112 -120 -198 -28 -109 -13 -226
42 -328 33 -60 130 -151 178 -167 27 -9 35 -17 35 -36 0 -81 89 -141 146 -100
19 14 18 15 -8 43 -41 43 -37 60 16 68 25 4 50 4 56 0 48 -29 148 -349 150
-480 1 -44 3 -47 12 -27 22 45 -37 371 -87 480 l-25 54 23 27 c12 15 31 45 41
69 l19 41 -27 35 c-22 30 -35 36 -77 42 -32 4 -62 16 -81 32 -30 25 -30 26
-26 113 2 65 7 93 19 104 15 15 20 11 61 -52 70 -107 103 -169 151 -293 112
-284 153 -546 187 -1180 18 -339 43 -553 86 -729 24 -103 82 -263 111 -309 21
-34 12 -46 -58 -72 l-62 -24 -34 39 c-18 21 -76 102 -130 179 -53 78 -126 183
-161 235 -168 244 -410 511 -525 580 -137 81 -340 122 -455 91 -110 -30 -181
-80 -244 -173 -22 -32 -49 -68 -59 -78 -22 -22 -49 -25 -49 -5 0 26 -29 47
-50 36 -26 -14 -33 -55 -15 -89 17 -33 41 -44 86 -39 31 3 32 2 48 -63 28
-111 99 -193 193 -221 32 -9 44 -9 73 5 44 21 75 71 75 121 0 55 -52 106 -107
106 -64 0 -105 -65 -45 -72 58 -7 32 -98 -28 -98 -39 0 -91 39 -119 89 -35 64
-34 176 3 248 36 72 75 114 138 148 45 25 67 30 144 33 336 15 569 -163 985
-750 67 -95 149 -207 181 -249 32 -42 58 -79 58 -82 0 -4 -8 -7 -17 -7 -11 0
-65 63 -143 167 -190 254 -307 399 -410 506 -104 109 -135 124 -44 21 156
-176 229 -266 385 -473 101 -134 166 -228 160 -234 -4 -4 -71 -13 -147 -18
-77 -5 -154 -12 -172 -15 -41 -8 -62 -37 -62 -86 0 -32 5 -40 32 -54 39 -20
85 -14 153 21 46 24 51 25 60 9 6 -10 25 -34 43 -55 28 -32 49 -43 145 -73
147 -47 144 -45 115 -89 l-23 -36 -110 2 c-118 2 -149 -5 -221 -54 -82 -56
-130 -170 -104 -250 l14 -42 12 71 c14 81 39 128 89 167 64 48 121 67 202 67
41 -1 77 -3 80 -6 15 -14 -220 -288 -408 -475 -535 -533 -1068 -843 -1824
-1060 -592 -170 -1161 -244 -2340 -306 -507 -27 -704 -39 -900 -55 -1336 -113
-2030 -357 -2581 -905 -203 -202 -322 -371 -464 -660 -116 -236 -192 -456
-256 -745 l-23 -105 5 110 c25 512 207 1044 516 1512 160 241 330 434 553 629
192 168 351 284 760 557 414 277 604 411 870 618 532 413 896 775 1055 1049
24 41 63 98 85 125 23 28 56 71 73 96 17 26 38 49 46 52 30 12 70 287 63 442
-12 274 -77 531 -182 722 -56 101 -200 238 -361 345 -129 84 -199 150 -211
196 -8 33 22 62 64 62 19 0 42 4 52 10 16 8 19 4 23 -38 5 -48 69 -215 75
-196 2 6 -5 32 -16 57 -49 113 -54 292 -12 380 118 244 435 277 555 57 16 -29
34 -76 41 -104 l13 -51 1 68 c1 53 5 72 21 90 28 29 23 71 -8 75 -17 3 -22 -1
-20 -14 6 -32 -19 -24 -76 26 -71 62 -96 75 -173 91 -144 30 -302 -52 -373
-194 -16 -33 -30 -70 -30 -82 0 -33 -9 -35 -51 -13 -106 55 -261 -18 -286
-134 -3 -16 -8 -28 -10 -28 -3 0 -56 45 -118 100 -63 55 -117 100 -120 100
-14 0 75 -92 155 -161 58 -50 89 -84 97 -108 7 -19 11 -36 10 -38 -8 -7 -236
180 -320 264 -155 153 -217 250 -257 408 -24 94 -26 221 -5 292 20 68 89 144
163 179 79 39 186 40 251 4 51 -29 78 -62 87 -106 13 -69 -81 -104 -98 -37 -7
28 -11 31 -31 24 -76 -28 -41 -155 50 -177 36 -9 70 3 111 40 31 29 37 40 36
75 -2 70 -65 154 -148 198 -17 9 -56 22 -86 28 l-55 12 3 40 c3 35 -1 44 -28
67 -36 30 -56 32 -88 10 -31 -21 -28 -43 8 -55 17 -6 30 -16 30 -23 0 -14 -41
-53 -90 -86 -48 -32 -108 -89 -130 -125 -10 -16 -28 -59 -39 -95 -43 -130 -21
-284 62 -444 64 -124 228 -286 475 -471 60 -45 88 -71 80 -76 -7 -3 -44 -10
-83 -14 -38 -4 -97 -16 -130 -26 -60 -19 -60 -19 -112 3 -50 20 -54 21 -95 5
-24 -9 -58 -26 -76 -37 -28 -17 -31 -23 -22 -40 6 -10 20 -27 33 -36 l22 -17
-57 -55 -58 -55 -167 7 c-855 34 -1261 170 -1631 545 -95 97 -235 285 -230
309 5 21 13 20 123 -13 121 -37 153 -41 161 -21 11 28 -15 46 -65 46 -51 0
-107 13 -163 37 -44 19 -45 13 15 178 205 572 666 1088 1212 1358 163 81 301
131 482 177 102 25 105 25 98 -3 -4 -15 -1 -28 8 -36 12 -10 19 -7 36 15 12
15 21 32 21 39 0 19 18 23 143 36 196 20 515 0 746 -47 425 -86 803 -295 1160
-639 412 -398 647 -852 701 -1353 17 -159 15 -574 -4 -722 -78 -613 -291
-1169 -607 -1590 -311 -413 -679 -712 -1303 -1060 -114 -63 -219 -125 -234
-138 l-27 -23 25 7 c39 10 284 129 374 181 122 70 363 220 436 271 344 243
716 615 911 912 255 389 434 877 508 1385 80 547 36 994 -141 1440 -328 827
-1133 1432 -2013 1515 -98 9 -338 12 -390 4z m-1951 -873 c12 -13 16 -32 14
-58 -3 -33 -7 -39 -35 -47 -18 -6 -35 -17 -38 -25 -10 -25 28 -66 64 -69 18
-2 31 -7 29 -12 -4 -11 -141 -125 -188 -157 -72 -47 -100 -10 -100 130 0 59
-4 85 -16 98 -14 15 -11 21 36 67 28 28 70 60 93 71 54 27 118 28 141 2z
m-969 -416 c1 -11 4 -25 8 -32 15 -25 -12 -21 -51 7 -61 44 -62 52 -5 48 40
-3 48 -6 48 -23z m285 -50 c38 -20 57 -53 39 -69 -9 -8 -11 -7 -6 6 3 9 -2 23
-14 34 -16 14 -24 15 -44 6 -39 -18 -27 -45 25 -55 18 -3 15 -5 -13 -6 -70 -2
-127 48 -97 84 16 19 73 19 110 0z m-250 -40 c0 -28 5 -38 25 -47 26 -12 28
-17 26 -54 -2 -16 6 -25 26 -32 22 -8 24 -11 8 -11 -26 -1 -65 26 -65 45 0 9
-16 30 -35 48 -35 33 -39 59 -11 78 20 14 26 8 26 -27z m8763 -97 c160 -325
227 -631 266 -1213 l8 -130 2 181 c2 247 -26 500 -80 724 -41 171 -104 334
-207 532 -6 11 120 -27 168 -52 68 -35 148 -92 218 -156 59 -53 63 -60 57 -88
-18 -89 -36 -325 -45 -600 -5 -170 -8 -311 -6 -313 4 -5 9 62 26 357 11 187
28 358 50 485 5 33 10 62 10 64 0 3 23 -24 50 -60 68 -86 133 -196 135 -225 0
-14 12 -35 26 -48 14 -13 34 -45 44 -71 22 -60 20 -68 -88 -269 -169 -314
-236 -526 -275 -864 -13 -112 3 -73 38 93 73 352 135 531 236 688 55 85 134
187 144 187 4 0 20 -51 34 -112 15 -62 30 -122 33 -133 3 -11 8 -90 12 -176
l6 -157 -59 -5 c-39 -4 -69 -13 -92 -30 -86 -61 -229 -293 -272 -442 -20 -66
-42 -277 -28 -264 3 3 11 32 17 65 34 196 161 376 352 501 l77 51 0 -67 0 -68
-75 -47 c-138 -88 -242 -228 -270 -363 -32 -161 -25 -192 10 -43 36 156 139
301 269 379 31 19 58 32 60 30 9 -11 -18 -173 -54 -319 -41 -170 -47 -210 -31
-210 16 0 56 61 84 127 30 71 82 279 92 368 7 61 16 75 49 75 17 0 18 -6 12
-72 -31 -319 -259 -686 -528 -847 l-37 -22 -39 83 c-112 236 -147 436 -192
1098 -6 85 -15 209 -21 275 -42 482 -147 846 -320 1101 -52 78 -52 86 8 104
65 19 67 18 126 -102z m-8424 3 c30 -42 26 -49 -9 -16 -30 29 -38 45 -21 45 5
0 19 -13 30 -29z m-147 -99 c-14 -4 -62 16 -62 28 0 5 16 2 36 -7 19 -10 31
-19 26 -21z m92 -125 c-7 -19 34 -67 70 -83 17 -7 25 -13 18 -14 -25 0 -81 29
-91 48 -14 26 -14 62 -1 62 5 0 7 -6 4 -13z m143 -23 c2 -6 -3 -14 -12 -18
-20 -7 -58 11 -49 25 8 13 56 7 61 -7z m9807 -166 c-20 -67 -68 -155 -104
-189 -78 -76 -237 -483 -310 -794 -17 -71 -34 -143 -38 -160 -6 -22 -14 -31
-33 -33 l-26 -3 -6 203 c-7 230 -25 352 -83 546 l-37 123 43 37 c24 20 68 54
99 75 53 37 59 39 109 33 l53 -6 -6 34 c-7 33 -5 34 40 51 35 14 49 15 57 7 7
-7 23 -12 36 -12 18 0 22 4 17 19 -3 11 1 26 11 36 17 16 27 16 97 -1 24 -6
27 -4 27 19 0 26 11 35 43 36 15 1 17 -4 11 -21z m-704 -132 c0 -6 -7 -2 -15
8 -8 11 -15 25 -15 30 0 6 7 2 15 -8 8 -11 15 -25 15 -30z m1724 -386 c14 -5
26 -15 26 -21 0 -18 -73 -84 -148 -134 -96 -65 -141 -60 -102 11 13 22 17 39
11 43 -21 13 -23 56 -2 75 30 28 168 44 215 26z m-694 -178 c92 -45 60 -155
-64 -220 -43 -23 -63 -27 -131 -27 -91 0 -140 21 -163 68 -12 24 -11 33 5 65
48 98 253 165 353 114z m-7201 -32 c56 -10 80 -22 211 -110 214 -145 346 -265
422 -385 24 -37 38 -86 52 -175 l5 -35 -27 35 c-151 194 -334 310 -604 379
-132 34 -217 47 -463 70 l-180 16 43 47 c38 41 46 46 70 38 15 -5 56 -11 92
-14 106 -10 245 -35 418 -77 246 -59 247 -59 -85 86 -129 56 -236 105 -239
108 -3 3 25 8 63 12 37 4 73 8 78 10 20 7 82 5 144 -5z m7641 -16 c22 -9 40
-21 40 -26 0 -5 9 -21 20 -35 11 -14 20 -32 20 -40 0 -22 -120 -144 -158 -160
-30 -12 -32 -16 -26 -51 7 -47 -19 -83 -87 -117 -46 -24 -119 -34 -119 -17 0
5 25 16 55 26 72 22 93 51 76 106 -16 54 -1 82 63 111 39 18 55 33 69 62 16
34 16 40 2 60 -16 22 -19 54 -9 81 7 19 5 20 54 0z m-7381 -69 c90 -45 203
-137 269 -218 61 -76 70 -100 12 -34 -45 51 -177 158 -289 236 -41 28 -71 51
-68 51 4 0 38 -16 76 -35z m6571 -195 c0 -11 -162 -191 -168 -186 -9 9 70 146
98 170 31 26 70 35 70 16z m440 -223 c0 -21 -29 -56 -60 -72 -31 -16 -132 -19
-165 -5 -17 7 -16 9 11 9 48 1 126 28 159 55 33 28 55 33 55 13z m-350 -437
c0 -41 -14 -72 -51 -115 -36 -40 -123 -89 -145 -81 -18 7 -18 26 -1 26 22 0
96 69 123 116 19 32 26 58 26 92 l-1 47 25 -28 c13 -16 24 -41 24 -57z m-260
-5 c44 -53 -88 -112 -146 -64 -20 16 -18 56 4 68 27 16 127 14 142 -4z m-5803
-167 c-3 -7 -5 -2 -5 12 0 14 2 19 5 13 2 -7 2 -19 0 -25z m5773 -22 c0 -3 -4
-8 -10 -11 -5 -3 -10 -1 -10 4 0 6 5 11 10 11 6 0 10 -2 10 -4z m-5814 -289
c-8 -29 -21 -60 -28 -70 -12 -16 -13 -7 -7 55 3 40 9 80 12 88 3 8 12 35 19
60 l13 45 3 -63 c2 -36 -4 -86 -12 -115z m-67 -117 c-9 -39 -53 -130 -63 -130
-3 0 12 40 32 90 19 49 37 89 38 87 2 -1 -2 -23 -7 -47z m5121 -22 c36 -41 37
-54 2 -97 l-28 -33 -61 51 c-34 28 -64 55 -67 60 -5 8 82 47 112 50 7 0 26
-14 42 -31z m-116 -92 l73 -63 -26 -41 c-14 -23 -29 -41 -32 -42 -4 0 -51 32
-105 71 -55 39 -110 75 -124 81 -24 10 -22 11 28 26 51 14 54 14 76 -7 29 -27
41 -27 22 1 -44 62 3 49 88 -26z m288 -76 c97 -73 241 -140 393 -181 l70 -19
-65 6 c-136 11 -324 69 -442 137 l-57 32 20 33 c12 17 23 32 25 32 2 0 27 -18
56 -40z"/>
<path d="M9510 9518 c0 -30 1 -31 16 -16 9 9 14 24 11 32 -11 27 -27 17 -27
-16z"/>
<path d="M9554 9395 c-9 -23 14 -45 26 -25 5 8 8 19 7 24 -6 17 -27 18 -33 1z"/>
<path d="M9922 7260 c0 -14 2 -19 5 -12 2 6 2 18 0 25 -3 6 -5 1 -5 -13z"/>
<path d="M10923 8301 c-90 -56 -52 -143 57 -128 47 6 99 44 99 73 2 56 -98 91
-156 55z"/>
<path d="M5762 10748 c-6 -6 -12 -35 -12 -62 1 -54 23 -91 69 -115 26 -15 35
-10 50 28 15 34 1 96 -27 130 -22 26 -63 36 -80 19z"/>
<path d="M3362 10710 c-93 -25 -145 -48 -233 -105 -204 -132 -346 -339 -415
-605 -24 -93 -27 -124 -28 -265 0 -173 16 -275 69 -445 44 -138 139 -328 213
-428 47 -62 33 -24 -21 59 -114 175 -182 349 -217 554 -66 386 25 727 262 980
99 107 228 184 418 251 79 27 52 30 -48 4z"/>
<path d="M3025 10689 c-13 -24 -14 -34 -4 -45 26 -32 49 -10 49 47 0 39 -25
38 -45 -2z"/>
<path d="M3545 10662 c-483 -110 -798 -553 -746 -1052 53 -517 306 -871 800
-1120 46 -23 85 -39 88 -37 2 3 -36 26 -84 52 -423 229 -638 489 -732 884 -74
311 -38 593 102 801 83 124 207 239 342 318 152 89 394 138 565 113 385 -57
699 -344 790 -723 23 -94 27 -264 8 -319 -19 -59 -46 -89 -78 -89 -27 0 -29 3
-32 48 -3 41 -6 47 -26 50 -63 9 -97 -94 -50 -153 28 -36 80 -58 110 -46 51
19 76 67 94 180 26 163 10 328 -45 469 -12 30 -19 58 -16 63 4 5 20 9 37 9 34
0 84 46 94 86 12 48 -59 122 -95 99 -6 -3 -11 -24 -11 -46 0 -46 -18 -59 -53
-36 -12 8 -75 64 -140 125 -198 186 -321 265 -487 312 -108 31 -325 37 -435
12z"/>
<path d="M2888 10566 c-11 -26 -5 -56 12 -56 15 0 34 46 27 64 -9 23 -26 19
-39 -8z"/>
<path d="M10312 10444 c-22 -15 -30 -48 -13 -58 16 -11 41 6 47 31 9 34 -7 46
-34 27z"/>
<path d="M2790 10424 c-11 -28 -6 -44 14 -44 25 0 39 27 26 49 -15 28 -28 26
-40 -5z"/>
<path d="M6014 10366 c-32 -64 -28 -92 18 -122 41 -26 85 -16 94 22 11 43 -44
154 -76 154 -4 0 -21 -24 -36 -54z"/>
<path d="M10186 10355 c-12 -32 -7 -46 17 -43 16 2 22 10 22 28 0 29 -29 40
-39 15z"/>
<path d="M10325 10313 c-48 -25 -151 -112 -193 -162 -103 -122 -209 -314 -262
-474 -32 -100 -18 -92 20 10 48 127 132 288 189 363 49 65 186 202 251 252 40
31 38 34 -5 11z"/>
<path d="M2700 10266 c0 -31 18 -43 36 -24 19 18 8 48 -17 48 -13 0 -19 -7
-19 -24z"/>
<path d="M10084 10245 c-4 -14 -3 -29 0 -33 11 -11 41 14 44 37 5 32 -36 29
-44 -4z"/>
<path d="M10001 10159 c-12 -33 7 -58 26 -33 17 23 16 29 -2 44 -12 10 -16 8
-24 -11z"/>
<path d="M8070 10135 c-154 -27 -277 -86 -383 -185 -107 -100 -190 -257 -173
-326 10 -38 62 -90 103 -102 107 -32 228 62 209 162 -12 62 -87 90 -94 36 -6
-37 -21 -50 -56 -50 -41 0 -76 35 -76 76 0 51 47 133 110 194 66 64 167 119
270 147 88 24 304 24 413 -1 43 -10 83 -15 90 -13 21 8 -83 49 -162 63 -92 16
-152 16 -251 -1z"/>
<path d="M2645 10120 c-9 -15 4 -50 20 -50 21 0 27 17 15 40 -12 22 -25 26
-35 10z"/>
<path d="M9060 10115 c-19 -22 -9 -69 16 -73 26 -4 37 19 24 52 -12 32 -25 39
-40 21z"/>
<path d="M9943 10058 c-20 -25 -26 -58 -10 -58 24 0 38 25 29 50 -6 17 -10 19
-19 8z"/>
<path d="M9176 9996 c-8 -33 2 -56 25 -56 14 0 19 7 19 28 0 26 -15 52 -31 52
-4 0 -10 -11 -13 -24z"/>
<path d="M6256 9989 c-51 -40 -28 -139 32 -139 36 0 62 35 62 81 0 77 -39 101
-94 58z"/>
<path d="M9880 9916 c0 -17 5 -26 16 -26 10 0 14 7 12 22 -5 32 -28 35 -28 4z"/>
<path d="M9274 9886 c-7 -30 11 -57 32 -49 21 8 14 67 -8 71 -12 2 -19 -5 -24
-22z"/>
<path d="M6412 9567 c-30 -32 -29 -120 2 -125 53 -11 100 62 74 115 -17 36
-48 40 -76 10z"/>
<path d="M9831 9534 c0 -11 3 -14 6 -6 3 7 2 16 -1 19 -3 4 -6 -2 -5 -13z"/>
<path d="M9811 9474 c0 -11 3 -14 6 -6 3 7 2 16 -1 19 -3 4 -6 -2 -5 -13z"/>
<path d="M3704 8893 c-8 -32 6 -58 32 -58 25 0 30 30 10 60 -21 32 -34 32 -42
-2z"/>
<path d="M3801 8781 c-7 -13 -6 -24 3 -36 16 -22 36 -12 36 20 0 29 -26 40
-39 16z"/>
<path d="M3894 8696 c-9 -23 0 -51 16 -51 10 0 15 10 15 29 0 32 -21 47 -31
22z"/>
<path d="M1330 8642 c170 -245 545 -453 965 -536 252 -50 584 -75 760 -58 74
7 67 8 -110 15 -725 28 -1218 197 -1550 531 -105 107 -107 109 -65 48z"/>
<path d="M2243 8693 c-12 -2 -38 -22 -57 -44 -28 -30 -36 -48 -36 -77 0 -78
105 -160 253 -196 112 -28 238 -46 317 -45 l75 1 -90 13 c-49 7 -112 18 -140
24 -127 29 -287 95 -312 128 -18 24 -16 57 5 76 26 24 45 21 73 -9 l24 -25 17
21 c21 26 22 40 6 74 -19 44 -80 70 -135 59z"/>
<path d="M4751 8654 c-26 -33 -26 -34 2 -75 30 -44 64 -49 106 -14 39 34 39
40 -1 40 -32 0 -33 1 -31 38 2 35 1 37 -27 37 -19 0 -35 -9 -49 -26z"/>
<path d="M7607 8624 c-11 -11 13 -34 35 -34 13 0 18 6 16 18 -3 17 -38 29 -51
16z"/>
<path d="M7802 8574 c-272 -49 -519 -208 -663 -427 -61 -92 -91 -161 -115
-265 -17 -74 -13 -109 6 -42 64 232 201 424 394 551 208 137 454 194 727 170
253 -23 455 -91 662 -224 43 -27 80 -47 83 -44 9 9 -118 87 -231 142 -217 105
-429 156 -651 154 -77 -1 -172 -7 -212 -15z"/>
<path d="M7442 8553 c2 -11 14 -19 31 -21 22 -3 27 1 27 17 0 17 -6 21 -31 21
-24 0 -30 -4 -27 -17z"/>
<path d="M1288 8543 c-22 -6 -23 -29 -2 -37 44 -17 82 6 49 31 -11 7 -21 12
-24 12 -3 -1 -14 -3 -23 -6z"/>
<path d="M5032 8487 c-51 -16 -126 -89 -153 -149 -20 -44 -24 -68 -23 -143 1
-84 9 -132 65 -385 31 -144 47 -252 55 -385 7 -107 8 -115 16 -75 16 80 -1
251 -51 530 -51 277 -54 312 -41 365 17 66 33 98 78 147 46 51 102 77 165 78
26 0 47 4 47 9 0 22 -100 27 -158 8z"/>
<path d="M7303 8478 c-29 -14 -29 -22 2 -36 19 -9 27 -8 40 4 12 13 13 19 4
30 -13 16 -16 16 -46 2z"/>
<path d="M7885 8474 c-11 -2 -47 -10 -80 -16 -293 -57 -561 -286 -678 -579
-47 -118 -61 -193 -61 -339 0 -147 9 -202 56 -325 56 -147 111 -225 286 -408
163 -172 173 -193 90 -199 -55 -4 -62 -31 -19 -72 58 -55 141 -24 162 60 11
41 13 43 38 37 14 -3 41 -12 59 -20 148 -61 472 -58 577 7 67 42 68 114 0 166
-62 47 -155 17 -155 -51 0 -23 4 -25 44 -25 85 0 81 -56 -7 -102 -37 -20 -56
-23 -167 -22 -146 1 -233 21 -365 83 -110 51 -164 89 -259 180 -183 177 -272
365 -283 601 -14 283 64 498 254 699 126 135 242 208 413 262 68 22 92 24 265
24 171 -1 201 -4 295 -27 403 -101 642 -293 875 -706 64 -112 85 -131 35 -31
-128 257 -315 478 -512 606 -116 75 -285 142 -448 178 -72 16 -371 30 -415 19z"/>
<path d="M1387 8439 c-23 -14 -5 -39 28 -39 30 0 49 22 33 38 -15 15 -37 15
-61 1z"/>
<path d="M7168 8379 c-26 -15 -22 -39 6 -39 26 0 51 24 41 40 -8 13 -25 12
-47 -1z"/>
<path d="M1510 8350 c-13 -9 -12 -12 4 -25 24 -19 40 -19 55 -2 22 27 -26 49
-59 27z"/>
<path d="M4545 8321 c-11 -34 32 -130 103 -229 62 -87 113 -170 196 -314 15
-27 29 -48 31 -48 2 0 -23 78 -57 173 -33 94 -73 212 -89 261 -30 92 -59 135
-111 162 -37 19 -66 18 -73 -5z"/>
<path d="M2998 8323 c12 -2 32 -2 45 0 12 2 2 4 -23 4 -25 0 -35 -2 -22 -4z"/>
<path d="M9413 8265 c0 -22 2 -30 4 -17 2 12 2 30 0 40 -3 9 -5 -1 -4 -23z"/>
<path d="M1627 8274 c-12 -13 4 -24 34 -24 20 0 29 4 27 13 -5 13 -50 22 -61
11z"/>
<path d="M7032 8234 c-18 -13 -21 -19 -11 -30 6 -8 19 -14 28 -14 26 0 61 29
55 45 -8 20 -44 19 -72 -1z"/>
<path d="M1740 8211 c-12 -9 -12 -11 2 -16 21 -8 48 -3 51 10 3 14 -34 17 -53
6z"/>
<path d="M1880 8154 c0 -10 7 -14 22 -12 32 5 35 28 4 28 -17 0 -26 -5 -26
-16z"/>
<path d="M6949 8075 c-49 -26 -44 -63 6 -51 36 9 58 35 44 52 -14 17 -17 17
-50 -1z"/>
<path d="M9371 7838 c-52 -91 -53 -85 55 -326 53 -119 120 -269 148 -332 28
-63 52 -107 54 -98 2 9 -15 90 -37 180 -43 175 -66 296 -77 405 -11 106 -47
188 -94 213 -17 9 -23 3 -49 -42z"/>
<path d="M4020 7820 c0 -5 4 -10 9 -10 6 0 13 5 16 10 3 6 -1 10 -9 10 -9 0
-16 -4 -16 -10z"/>
<path d="M1260 7793 c-22 -9 -31 -26 -17 -35 17 -11 24 -10 41 8 25 24 10 40
-24 27z"/>
<path d="M1124 7709 c-3 -6 -1 -16 5 -22 13 -13 42 0 49 21 5 15 -44 16 -54 1z"/>
<path d="M4342 7647 c-27 -12 -28 -23 -2 -37 27 -14 60 -4 60 20 0 22 -28 30
-58 17z"/>
<path d="M1038 7629 c-29 -16 -22 -41 10 -37 19 2 28 9 30 26 4 24 -11 28 -40
11z"/>
<path d="M8842 7579 c-19 -7 -21 -12 -13 -28 11 -20 53 -32 71 -21 17 11 8 42
-15 50 -11 4 -30 4 -43 -1z"/>
<path d="M4435 7567 c-21 -16 -15 -32 14 -40 27 -7 56 16 48 37 -8 19 -37 21
-62 3z"/>
<path d="M948 7533 c-10 -2 -18 -13 -18 -24 0 -16 6 -20 28 -17 19 2 27 9 27
22 0 21 -10 26 -37 19z"/>
<path d="M4520 7475 c0 -19 49 -40 63 -26 5 5 7 17 4 25 -8 21 -67 22 -67 1z"/>
<path d="M8954 7475 c-8 -19 3 -35 25 -35 26 0 44 23 29 38 -17 17 -47 15 -54
-3z"/>
<path d="M861 7411 c-27 -27 -27 -41 2 -41 31 0 50 14 45 35 -5 27 -24 29 -47
6z"/>
<path d="M4597 7393 c-12 -12 -7 -31 10 -37 15 -6 53 18 42 28 -10 9 -46 16
-52 9z"/>
<path d="M9042 7373 c2 -12 12 -18 28 -18 16 0 26 6 28 18 3 13 -3 17 -28 17
-25 0 -31 -4 -28 -17z"/>
<path d="M8947 7006 c-81 -29 -168 -105 -206 -180 -66 -133 -42 -282 65 -396
48 -52 55 -70 24 -70 -23 0 -26 -22 -5 -40 17 -14 44 -7 75 20 18 16 33 18 93
14 l72 -4 -74 20 c-87 23 -126 46 -176 101 -55 61 -69 101 -68 194 0 62 6 91
23 128 28 60 106 139 166 167 99 48 259 47 384 -4 35 -14 66 -23 69 -21 6 6
-94 50 -159 69 -66 20 -229 21 -283 2z"/>
<path d="M10181 6861 c-15 -28 -14 -46 5 -62 14 -11 18 -11 29 4 14 20 10 51
-10 67 -10 9 -16 6 -24 -9z"/>
<path d="M10267 6773 c-11 -10 -8 -51 3 -58 6 -4 17 -4 25 -1 11 4 12 11 4 36
-11 30 -19 36 -32 23z"/>
<path d="M10350 6685 c0 -29 28 -45 40 -24 11 17 -6 49 -25 49 -9 0 -15 -10
-15 -25z"/>
<path d="M10450 6636 c0 -14 5 -28 11 -32 17 -10 32 12 24 35 -9 29 -35 27
-35 -3z"/>
<path d="M10560 6611 c0 -17 12 -41 21 -41 5 0 9 11 9 25 0 16 -6 25 -15 25
-8 0 -15 -4 -15 -9z"/>
<path d="M10703 6573 c9 -9 19 -14 23 -11 10 10 -6 28 -24 28 -15 0 -15 -1 1
-17z"/>
<path d="M9090 6530 c-34 -34 -20 -99 14 -71 24 20 48 2 44 -35 -3 -28 -1 -31
13 -24 24 14 49 56 49 85 0 18 -10 31 -32 45 -42 25 -63 25 -88 0z"/>
<path d="M3726 6449 c-37 -29 -58 -74 -59 -126 0 -50 14 -69 56 -77 21 -4 36
2 60 24 29 25 32 34 31 82 0 56 -26 118 -48 118 -7 0 -25 -9 -40 -21z"/>
<path d="M3820 6116 c-30 -24 -134 -114 -230 -201 -187 -168 -446 -388 -650
-551 -132 -106 -270 -210 -720 -546 -456 -340 -634 -491 -636 -541 -2 -25 -1
-26 25 -13 14 8 91 70 171 138 160 137 332 273 487 388 772 568 1136 862 1423
1150 202 201 258 278 130 176z"/>
<path d="M3475 6130 c-9 -10 -20 -39 -22 -63 -5 -39 -2 -46 27 -71 31 -26 33
-26 53 -9 44 40 51 107 16 149 -16 20 -53 17 -74 -6z"/>
<path d="M9914 5903 c-295 -334 -372 -411 -570 -562 -466 -357 -1107 -645
-1824 -820 -562 -137 -1477 -240 -2129 -241 -123 0 -222 -2 -220 -4 2 -2 96
-9 209 -16 1024 -57 2135 103 2945 425 429 170 804 387 1095 633 200 169 465
462 521 577 8 17 23 42 33 58 31 47 11 30 -60 -50z"/>
<path d="M7330 5898 c-150 -78 -196 -252 -92 -351 l27 -26 75 75 c44 43 83 74
95 74 12 0 44 -24 73 -53 49 -50 53 -57 54 -104 2 -63 -21 -97 -98 -148 -181
-120 -549 -245 -954 -324 -65 -12 -189 -27 -315 -38 l-90 -7 105 -12 c131 -14
264 -4 525 41 397 69 664 150 824 252 77 50 161 138 199 209 27 53 32 72 32
130 -1 91 -24 141 -100 214 -79 77 -117 94 -215 98 -75 4 -84 2 -145 -30z"/>
<path d="M3251 5906 c-40 -48 -30 -131 17 -143 34 -8 62 26 62 76 0 64 -48
104 -79 67z"/>
<path d="M10140 5877 c-45 -16 -61 -56 -38 -95 20 -34 55 -47 100 -38 39 7
115 53 123 74 9 24 -24 50 -76 61 -60 13 -65 13 -109 -2z"/>
<path d="M939 5811 c-35 -35 -37 -49 -6 -53 20 -3 22 -8 22 -57 -1 -40 -6 -57
-20 -67 -25 -18 -106 -18 -131 1 -23 17 -43 20 -26 3 7 -7 12 -19 12 -27 0
-29 118 -114 182 -131 31 -9 44 -7 75 9 44 22 60 39 96 103 51 88 28 176 -58
225 -57 33 -109 30 -146 -6z"/>
<path d="M11350 5670 c0 -6 62 -10 165 -10 103 0 165 4 165 10 0 6 -62 10
-165 10 -103 0 -165 -4 -165 -10z"/>
<path d="M9894 5563 c-39 -8 -58 -39 -48 -75 9 -30 14 -33 54 -36 57 -4 82 3
119 34 37 31 39 47 7 62 -29 13 -103 22 -132 15z"/>
<path d="M135 5364 c-46 -12 -111 -38 -124 -50 -11 -10 4 -13 75 -18 159 -10
214 -23 303 -67 157 -78 283 -233 354 -437 28 -80 31 -98 31 -217 0 -144 -21
-308 -85 -665 -107 -597 -112 -635 -144 -940 -18 -172 -19 -413 -4 -548 24
-202 34 -151 49 233 15 393 36 542 146 1050 173 799 185 1010 69 1262 -41 90
-79 144 -145 210 -117 117 -261 182 -415 188 -50 2 -99 2 -110 -1z"/>
<path d="M9592 5297 c-29 -30 -28 -48 4 -82 23 -25 29 -27 75 -21 68 9 98 25
106 54 7 29 -12 47 -67 62 -58 16 -94 12 -118 -13z"/>
<path d="M4130 5146 c-36 -13 -186 -78 -335 -145 -148 -68 -400 -181 -560
-253 -562 -251 -734 -330 -752 -344 -17 -12 -16 -13 9 -14 14 0 181 38 369 85
595 149 740 177 1209 236 179 22 291 58 395 124 59 38 115 98 115 125 0 10 5
22 10 25 21 13 -186 130 -289 164 -79 26 -90 26 -171 -3z"/>
<path d="M9290 5068 c-35 -19 -37 -51 -4 -77 45 -35 133 -20 168 30 14 21 14
25 1 38 -20 20 -132 26 -165 9z"/>
<path d="M1515 4952 c-42 -20 -89 -57 -156 -123 -94 -91 -97 -96 -113 -164
-23 -93 -64 -220 -186 -575 -158 -457 -232 -680 -228 -692 4 -12 82 119 198
332 152 280 255 444 415 660 266 359 304 672 70 562z"/>
<path d="M5477 4974 c-9 -3 -15 -10 -12 -15 8 -12 205 -12 205 1 0 6 -20 10
-44 10 -24 0 -63 2 -87 4 -24 3 -52 2 -62 0z"/>
<path d="M8993 4868 c-30 -15 -29 -42 2 -56 42 -19 103 -15 137 10 l31 21 -23
19 c-25 20 -110 24 -147 6z"/>
<path d="M8715 4707 c-20 -15 -20 -16 4 -41 33 -35 89 -36 128 -2 22 20 25 27
16 37 -20 20 -124 24 -148 6z"/>
<path d="M8380 4597 c-39 -20 -37 -45 4 -62 45 -19 77 -19 102 0 18 14 18 16
-14 45 -35 33 -54 36 -92 17z"/>
<path d="M4040 4052 c-15 -3 79 -26 231 -58 1256 -259 1756 -449 2274 -860
296 -236 662 -664 711 -831 16 -55 16 -60 -5 -130 -29 -101 -28 -120 9 -128
30 -7 38 -3 96 40 9 6 20 3 35 -10 30 -27 87 -148 95 -201 5 -38 3 -48 -20
-75 -19 -23 -26 -42 -26 -75 0 -51 16 -64 61 -47 80 31 146 -95 104 -199 -9
-24 -23 -50 -32 -60 -8 -9 -13 -29 -11 -45 3 -26 6 -28 49 -28 86 -1 104 -37
119 -230 10 -124 10 -139 -6 -156 -16 -18 -16 -22 5 -70 11 -28 21 -62 21 -75
0 -26 34 -54 67 -54 32 0 53 38 55 101 2 47 -4 67 -44 150 -56 113 -77 191
-59 213 7 8 30 17 51 21 45 8 63 25 58 56 -2 17 -16 27 -57 40 -29 10 -57 17
-61 14 -17 -10 -38 35 -50 106 -14 87 -5 119 33 119 38 0 59 22 52 53 -10 37
-46 63 -99 71 -63 10 -94 49 -130 162 -16 51 -26 99 -23 108 4 9 18 16 34 16
55 0 94 51 61 77 -19 15 -108 43 -134 43 -33 0 -98 80 -130 160 -15 38 -24 75
-21 83 3 8 28 22 55 31 27 9 57 25 66 35 15 16 13 20 -17 49 -35 34 -81 52
-135 52 -66 0 -138 53 -256 190 -126 146 -246 299 -246 315 0 17 19 11 97 -28
71 -36 172 -65 273 -78 157 -20 304 17 359 91 32 44 43 109 27 163 -39 131
-136 164 -227 77 -29 -27 -40 -45 -37 -62 3 -22 7 -23 65 -20 66 3 83 -9 83
-57 0 -32 -64 -96 -108 -109 -146 -44 -334 26 -897 334 -484 265 -818 407
-1226 523 -275 77 -491 118 -900 171 -240 31 -245 31 -289 22z"/>
<path d="M5613 3983 c15 -2 39 -2 55 0 15 2 2 4 -28 4 -30 0 -43 -2 -27 -4z"/>
<path d="M5760 3974 c25 -2 151 -8 280 -14 579 -26 1220 -66 1385 -85 489 -58
866 -123 1181 -205 976 -255 1630 -695 1913 -1290 194 -409 211 -890 42 -1235
-40 -82 -63 -113 -127 -177 -87 -88 -142 -118 -212 -118 -57 0 -89 20 -108 66
-31 74 -12 149 48 198 18 14 39 31 46 37 19 15 15 26 -25 70 -46 51 -81 69
-133 69 -85 0 -175 -69 -230 -176 -21 -42 -25 -62 -25 -144 0 -83 3 -102 27
-151 35 -71 88 -126 147 -151 25 -11 53 -26 62 -34 15 -13 23 -12 70 10 30 13
74 32 99 43 68 27 178 103 252 171 108 102 210 267 269 440 46 133 60 431 29
622 -82 506 -366 964 -790 1276 -309 227 -781 430 -1300 559 -366 91 -624 132
-1075 170 -459 39 -573 44 -1215 48 -360 2 -635 3 -610 1z"/>
<path d="M8600 3931 c0 -13 40 -24 71 -19 42 5 26 23 -23 26 -29 2 -48 -1 -48
-7z"/>
<path d="M3313 3904 c3 -4 77 -17 163 -31 359 -56 666 -205 950 -461 171 -154
265 -271 409 -506 105 -171 227 -286 305 -286 63 0 90 53 97 185 6 106 -14
212 -54 295 -67 139 -362 367 -698 541 -284 147 -488 220 -717 254 -96 15
-468 22 -455 9z m1597 -749 l64 -70 -73 70 c-40 39 -77 79 -83 90 l-10 20 19
-20 c11 -11 48 -51 83 -90z"/>
<path d="M8771 3891 c-12 -8 -8 -11 15 -17 52 -13 94 -3 64 16 -19 12 -61 12
-79 1z"/>
<path d="M8940 3846 c0 -2 78 -35 173 -71 506 -197 763 -330 1041 -539 188
-141 468 -423 608 -612 34 -46 66 -84 71 -84 14 0 -76 162 -138 247 -65 88
-343 369 -432 434 -69 52 -300 204 -363 241 -135 78 -256 139 -340 172 -52 21
-111 46 -132 57 -40 21 -170 67 -347 125 -95 31 -141 41 -141 30z"/>
<path d="M9705 3750 c-10 -17 23 -59 51 -66 21 -5 32 0 56 24 17 16 27 35 24
41 -9 14 -123 15 -131 1z"/>
<path d="M3145 3701 c6 -5 53 -19 105 -31 52 -12 139 -33 192 -46 382 -94 706
-314 907 -614 209 -313 287 -716 205 -1067 -76 -327 -291 -599 -589 -743 -182
-88 -329 -122 -535 -122 -279 -1 -500 65 -669 200 -116 92 -154 154 -155 254
-1 59 2 71 24 92 53 53 132 35 167 -39 25 -52 56 -48 117 14 38 38 49 57 48
79 -2 66 -80 175 -152 212 -85 43 -220 31 -277 -25 -34 -34 -63 -115 -63 -174
0 -54 25 -138 64 -216 39 -76 149 -218 195 -250 16 -11 50 -35 76 -54 109 -77
264 -140 471 -190 135 -33 159 -52 183 -146 25 -97 94 -156 192 -163 54 -4 60
-2 89 26 23 24 30 39 30 70 0 39 -1 40 -62 67 -35 15 -65 29 -67 31 -9 8 53
76 94 104 25 17 108 62 186 101 191 95 296 166 405 274 153 150 250 319 305
530 27 102 32 144 36 277 10 289 -51 552 -175 762 -168 282 -412 511 -683 640
-146 70 -220 94 -344 111 -55 8 -125 19 -155 24 -96 16 -175 22 -165 12z"/>
<path d="M2940 3662 c0 -13 25 -22 62 -22 19 0 28 4 26 13 -5 14 -88 23 -88 9z"/>
<path d="M9997 3643 c-26 -26 19 -93 64 -95 53 -3 109 3 109 11 0 46 -143 115
-173 84z"/>
<path d="M10311 3451 c-29 -29 -27 -37 19 -67 41 -27 67 -28 104 -1 34 25 -4
70 -71 83 -24 5 -36 1 -52 -15z"/>
<path d="M10547 3243 c-13 -13 -7 -61 11 -83 24 -30 111 -40 131 -16 19 23 1
60 -41 86 -32 19 -88 27 -101 13z"/>
<path d="M2071 3201 c-26 -26 -27 -65 -1 -91 42 -42 180 -12 180 39 0 29 -55
64 -110 69 -39 3 -52 0 -69 -17z"/>
<path d="M1815 2996 c-22 -22 -23 -29 -14 -53 17 -45 29 -53 81 -53 76 0 132
37 121 80 -5 20 -84 50 -131 50 -22 0 -41 -8 -57 -24z"/>
<path d="M10789 2976 c-17 -37 -4 -70 36 -89 52 -25 89 -22 109 8 23 36 13 58
-38 83 -58 30 -93 29 -107 -2z"/>
<path d="M1592 2779 c-28 -30 -28 -60 2 -88 l23 -22 56 21 c31 12 64 31 72 43
14 19 13 23 -3 39 -10 10 -41 20 -73 24 -50 6 -58 4 -77 -17z"/>
<path d="M10996 2694 c-56 -55 47 -151 138 -128 33 8 39 28 20 67 -31 64 -121
99 -158 61z"/>
<path d="M1462 2545 c-41 -18 -49 -38 -28 -70 20 -30 73 -34 117 -8 33 19 40
33 32 61 -8 33 -65 41 -121 17z"/>
<path d="M1328 2301 c-38 -22 -43 -40 -20 -71 15 -19 28 -25 57 -24 38 1 88
31 93 55 8 43 -80 71 -130 40z"/>
<path d="M1252 2004 c-26 -18 -29 -49 -6 -58 49 -19 114 14 114 57 0 23 -76
23 -108 1z"/>
<path d="M1227 1660 c-30 -24 -36 -64 -11 -74 10 -4 27 5 46 24 50 50 20 93
-35 50z"/>
</g>
</svg>
